<?xml version="1.0" encoding="UTF-8" standalone="no"?>
<!-- Current Image is an "IC Orange" background with a white lightbulb (from SLDS) -->
<svg viewBox="0 0 24 24" version="1.1" xmlns="http://www.w3.org/2000/svg" xmlns:xlink="http://www.w3.org/1999/xlink" style="background-color:#ec7039; fill:white;">
	<path d="M11.1 1.2a7.4 7.4 0 0 0-6.6 6.6 7.3 7.3 0 0 0 2.7 6.3 2.3 2.3 0 0 1 .8 1.8 1.8 1.8 0 0 0 1.9 1.9h4.2a1.8 1.8 0 0 0 1.8-1.9 2.3 2.3 0 0 1 .9-1.8 7.3 7.3 0 0 0 2.7-5.6c.1-4.3-3.8-7.7-8.4-7.3zm4.1 18.7H8.8a.7.7 0 0 0-.8.7 2.2 2.2 0 0 0 2.2 2.2h3.6a2.2 2.2 0 0 0 2.2-2.2.7.7 0 0 0-.8-.7z"></path>
</svg>